/* XPM */
static const char *MenuDlg_WxBitmapButton3_XPM[]={
/* MenuDlg_WxBitmapButton3 */
"22 22 358 2",
"      c None",
" 0    c #ECE5D2",
" 1    c #EBE2D3",
" 2    c #EAE2CF",
" 3    c #EAE1D0",
" 4    c #E8E6D1",
" 5    c #EEE7D5",
" 6    c #EBE4D1",
" 7    c #EFE6D5",
" 8    c #F0E9D7",
" 9    c #EBE6D2",
" a    c #EDE6D6",
" b    c #D1C1B1",
" c    c #9F7F66",
" d    c #8C664F",
" e    c #8E664D",
" f    c #8F654D",
" g    c #EDE1D3",
" h    c #ECE0D0",
" i    c #EAE5CF",
" j    c #EEE5D4",
" k    c #ECE1CF",
" l    c #EEE6D3",
" m    c #EFE3D3",
" n    c #ECE3D4",
" o    c #EDE6D4",
" p    c #EDE8D4",
" q    c #ECE5D3",
" r    c #EFE4D2",
" s    c #D2C3AC",
" t    c #A2826B",
" u    c #CBB59D",
" v    c #D8CEB3",
" w    c #8D6951",
" x    c #9A7660",
" y    c #ECE4D1",
" z    c #EDE4D3",
" A    c #AE8F7A",
" B    c #8A664E",
" C    c #ECE3D2",
" D    c #E8DFCE",
" E    c #ECE9D8",
" F    c #F0E9D6",
" G    c #EBE4D2",
" H    c #EBE4D4",
" I    c #F0E7D6",
" J    c #CAB7A6",
" K    c #9B7960",
" L    c #C8BAA0",
" M    c #D3C7AF",
" N    c #8C674D",
" O    c #BFAA95",
" P    c #E7D7C7",
" Q    c #8B654E",
" R    c #987056",
" S    c #8C674C",
" T    c #8B634A",
" U    c #8C624A",
" V    c #8A6248",
" W    c #8D654C",
" X    c #8A664C",
" Y    c #90664E",
" Z    c #8D684E",
" &    c #916852",
"0     c #8D694F",
"00    c #8B664C",
"01    c #CFC1A7",
"02    c #D6C6AD",
"03    c #8D6750",
"04    c #89634C",
"05    c #EEE9D6",
"06    c #AF9179",
"07    c #9F7962",
"08    c #AF937B",
"09    c #AB8F79",
"0a    c #AE8E77",
"0b    c #AB917A",
"0c    c #B1927E",
"0d    c #B28F7B",
"0e    c #A28067",
"0f    c #906753",
"0g    c #DFD8BC",
"0h    c #977258",
"0i    c #B18E78",
"0j    c #EFE6D7",
"0k    c #B1937B",
"0l    c #D5C4B4",
"0m    c #BA9E90",
"0n    c #C1A597",
"0o    c #C0A695",
"0p    c #BB9F91",
"0q    c #AD9080",
"0r    c #BFA596",
"0s    c #C3A799",
"0t    c #B19882",
"0u    c #8D6953",
"0v    c #D5CBB0",
"0w    c #E2DAC3",
"0x    c #CCC2A7",
"0y    c #947058",
"0z    c #A6886E",
"0A    c #EBE3D6",
"0B    c #EEE7D4",
"0C    c #ECE7D4",
"0D    c #EFE8D6",
"0E    c #B0917D",
"0F    c #86624A",
"0G    c #C0A496",
"0H    c #B69C8D",
"0I    c #B09081",
"0J    c #C5A99D",
"0K    c #DFC9BB",
"0L    c #C2AB9B",
"0M    c #BDA291",
"0N    c #A17E6A",
"0O    c #C2B197",
"0P    c #E0DCC1",
"0Q    c #D9CAB3",
"0R    c #99705C",
"0S    c #AD917C",
"0T    c #8A644D",
"0U    c #EDE4D5",
"0V    c #B0907B",
"0W    c #876247",
"0X    c #BAA091",
"0Y    c #CEB4A7",
"0Z    c #AD9281",
"0&    c #AC9082",
"1     c #B09486",
"10    c #AF9586",
"11    c #A5826E",
"12    c #8F6B53",
"13    c #DFD1B7",
"14    c #D1C3A9",
"15    c #936D56",
"16    c #A58878",
"17    c #B1907D",
"18    c #EEE7D7",
"19    c #AF9177",
"1a    c #8B624C",
"1b    c #BAA18D",
"1c    c #AE9183",
"1d    c #DFCBC0",
"1e    c #AE9181",
"1f    c #D1B9AD",
"1g    c #B19786",
"1h    c #B49785",
"1i    c #967059",
"1j    c #CCC0A6",
"1k    c #E1D9C2",
"1l    c #D5C4B0",
"1m    c #937156",
"1n    c #D9C1B5",
"1o    c #B0927A",
"1p    c #EBE6D3",
"1q    c #EDE8D5",
"1r    c #CCB9AA",
"1s    c #AE8E81",
"1t    c #AF9385",
"1u    c #C6AC9D",
"1v    c #DEC8BA",
"1w    c #9E7B68",
"1x    c #946E57",
"1y    c #D8D1B5",
"1z    c #E3DCC0",
"1A    c #C8B69E",
"1B    c #A5856E",
"1C    c #AC9281",
"1D    c #DECABF",
"1E    c #AF937E",
"1F    c #EFE8D5",
"1G    c #F1EBDD",
"1H    c #AF8E7B",
"1I    c #DEC7B9",
"1J    c #A48370",
"1K    c #9D7A66",
"1L    c #9A7764",
"1M    c #A78876",
"1N    c #A98877",
"1O    c #9A7461",
"1P    c #D6C8AB",
"1Q    c #E3DBC4",
"1R    c #D5C5AC",
"1S    c #9B7761",
"1T    c #A68A75",
"1U    c #CFB9AB",
"1V    c #AE927D",
"1W    c #90684F",
"1X    c #F0EADC",
"1Y    c #EDE5D2",
"1Z    c #B1927D",
"1&    c #C0A697",
"2     c #BDAD93",
"20    c #C1AD92",
"21    c #97735D",
"22    c #997A65",
"23    c #946E5B",
"24    c #D7CBB3",
"25    c #E2DAC5",
"26    c #C2AA92",
"27    c #A4846D",
"28    c #AF9284",
"29    c #C6AB9A",
"2a    c #DFCDC3",
"2b    c #916950",
"2c    c #F2EBD9",
"2d    c #F2EADD",
"2e    c #F1EAD7",
"2f    c #8E694F",
"2g    c #CBAFA1",
"2h    c #DCD0B8",
"2i    c #E1DAC0",
"2j    c #D3C5AA",
"2k    c #C4AE96",
"2l    c #D7CBB1",
"2m    c #E1DBC3",
"2n    c #E0DCBF",
"2o    c #C4B399",
"2p    c #D6C3B4",
"2q    c #E0CCC1",
"2r    c #B2937E",
"2s    c #8F6A50",
"2t    c #F0EBD7",
"2u    c #EFE8D8",
"2v    c #ECE6D6",
"2w    c #B2927D",
"2x    c #8E694E",
"2y    c #B49D8B",
"2z    c #9B7562",
"2A    c #966D59",
"2B    c #D0C0A7",
"2C    c #E0DCC3",
"2D    c #E4DABF",
"2E    c #E2DBC1",
"2F    c #906650",
"2G    c #916D57",
"2H    c #BFA290",
"2I    c #AE9085",
"2J    c #B29585",
"2K    c #AB907F",
"2L    c #F0E9D9",
"2M    c #B4947F",
"2N    c #B09383",
"2O    c #B9A08A",
"2P    c #AF937D",
"2Q    c #946E59",
"2R    c #C9B9A0",
"2S    c #E1DBC1",
"2T    c #DFD8BE",
"2U    c #906B51",
"2V    c #9F7F6A",
"2W    c #C5AA99",
"2X    c #C1AA9A",
"2Y    c #DAC4B7",
"2Z    c #B89E8F",
"2&    c #B3947F",
"3     c #906A53",
"30    c #F1ECD9",
"31    c #F0EADA",
"32    c #EFE7D4",
"33    c #8E6350",
"34    c #C1A798",
"35    c #C2A69B",
"36    c #A38873",
"37    c #936F57",
"38    c #CEBEA5",
"39    c #E1D5BD",
"3a    c #A88977",
"3b    c #B8A191",
"3c    c #D8C2B4",
"3d    c #B99F90",
"3e    c #B2927B",
"3f    c #8C6653",
"3g    c #EFE9DB",
"3h    c #F4EBDA",
"3i    c #EEE8D2",
"3j    c #8C634D",
"3k    c #B19685",
"3l    c #C6AC9F",
"3m    c #E0CABC",
"3n    c #A38271",
"3o    c #DBD4BA",
"3p    c #9A7A63",
"3q    c #D9C3B8",
"3r    c #D1BAAA",
"3s    c #B2937F",
"3t    c #8F6654",
"3u    c #F1E8DF",
"3v    c #ECE0CA",
"3w    c #EFE0C9",
"3x    c #B08E75",
"3y    c #8F6147",
"3z    c #AD9382",
"3A    c #A98E7B",
"3B    c #B29784",
"3C    c #CCB2A5",
"3D    c #AA8976",
"3E    c #C9B99F",
"3F    c #D6C8AE",
"3G    c #916B54",
"3H    c #A2816E",
"3I    c #B09385",
"3J    c #C8B1A1",
"3K    c #C3A99A",
"3L    c #DECBBD",
"3M    c #F0EBD8",
"3N    c #E6DCC3",
"3O    c #E9DBBE",
"3P    c #AE8A70",
"3Q    c #8B6149",
"3R    c #CCB5A7",
"3S    c #B7A092",
"3T    c #DCC6B8",
"3U    c #AD9185",
"3V    c #C8B2A5",
"3W    c #C9B09C",
"3X    c #906C52",
"3Y    c #926E58",
"3Z    c #A1806D",
"3&    c #AB9182",
"4     c #C6B0A3",
"40    c #89634E",
"41    c #F1EADA",
"42    c #E8DEC3",
"43    c #AC8A71",
"44    c #9D735A",
"45    c #8D684D",
"46    c #AF8D74",
"47    c #AF8F7A",
"48    c #B3957D",
"49    c #B4947D",
"4a    c #B0917C",
"4b    c #AF907B",
"4c    c #AE9378",
"4d    c #B3937E",
"4e    c #A07A65",
"4f    c #947259",
"4g    c #F3ECDA",
"4h    c #EADFC3",
"4i    c #89604A",
"4j    c #8A6047",
"4k    c #896148",
"4l    c #8F604E",
"4m    c #8E6352",
"4n    c #8A644F",
"4o    c #8F6952",
"4p    c #88624B",
"4q    c #8E644C",
"4r    c #8B674D",
"4s    c #91674F",
"4t    c #E9E0CF",
"4u    c #EEE3CD",
"4v    c #B08D79",
"4w    c #EAE5D2",
"4x    c #F2E7D5",
"4y    c #F2ECDE",
"4z    c #F3EAD9",
"4A    c #F4EDDA",
"   0 1 2 1 3 4 5 6 7 5 6 8 5 9 a a b c d e f",
" g 1 h i j k l m j n o p q 5 r l s t u v w x",
" y z A B C D E F G H G y 8 I 0 J K L M N O P",
" H Q R S T U V T W X Y Z &0 00 e010203030405",
" o0607 e A0806 A090a0b0c0d0e0f020g030h e0i o",
" y0j0k T0l0m0n0o0p0q0r0s0t0u0v0w0x0y0z000A0B",
"0C0D0E0F0G0H0I0J0K0m0L0M0N0O0P0Q0R0s0S0T F 6",
"0U C0V0W0X0Y0Z0&1 100M1112130w14151617 T1805",
"0D 0191a1b1c1d1e1f1g1h1i1j1k1l1m0E1n1o0T1p o",
" z1q0V B1r1s1t1u1v1e1w1x1y1z1A1B1C1D1E e1F1G",
"0C j1H W1I1J1K1L1M1N1O1P1Q1R1S1T0S1U1V1W F1X",
"1Y0B1Z Z1& e2 202122232425262728292a0E2b2c2d",
"0C2e0k2f2g032h2i2j2k2l2m2n2o1L2p0&2q2r2s2t2u",
"2v 82w2x2y2z2A2B2C2D2E2E2F2G2H2I2J2K1Z2f2t2L",
" H0D2M0 2N2O2P2Q2R2S0P2T2U2V2W2X2Y2Z2&3 3031",
"32 p1o332834353637382S39033a3b2N3c3d3e3f3g3h",
" z3i1o3j3k3l0L3m3n2U3o2T2f3p3q3r0q3b3s3t1X3u",
"3v3w3x3y3z3A3B3C3D233E3F3G3H3I3J3K3L3e1W3M 8",
"3N3O3P3Q3R3S3T3U3V3W3X3Y3Z3c3&0q1e4 2w403M41",
"4243444546 A0V4748493s4a4b4c4d1Z2w0k4e4f0k4g",
"4h4i4j4k4l4m4n3j4o2b4o1W Z X3j4p4q4r Z4s d1F",
"4t4u4v4p z4w0C184x05 84y4z310D412e312w4n4A2L"};

